<svg width="88" height="88" viewBox="0 0 88 88" fill="none" xmlns="http://www.w3.org/2000/svg">
<path fill-rule="evenodd" clip-rule="evenodd" d="M34.5553 0.663975C17.6502 4.45438 4.10618 18.2129 0.727287 35.0287C-0.912724 43.1895 0.382637 56.9374 2.99682 59.1094C4.14919 60.0668 4.13355 60.0825 14.8333 47.3014C23.1272 37.3942 24.1879 36.3239 25.1297 36.9128C25.7073 37.2735 26.1162 37.7488 26.0385 37.9686C25.9609 38.1883 21.247 43.9288 15.5634 50.7255C5.21162 63.1039 3.84253 65.3403 6.3908 65.7049C7.2985 65.8346 9.61552 63.4054 17.004 54.5797C22.2022 48.3695 27.087 42.5464 27.8579 41.6387C29.2091 40.0494 29.2934 40.0265 30.181 41.0202C31.0546 41.9978 30.5095 42.7589 19.6773 55.6775C13.3932 63.1722 8.34083 69.5713 8.44975 69.8979C8.55867 70.2245 9.09212 70.7614 9.63563 71.0913C10.8165 71.8071 11.0422 71.5694 24.3823 55.6126C29.4604 49.5378 33.7962 44.568 34.0168 44.568C34.238 44.568 34.7279 44.9415 35.1066 45.3978C35.682 46.0918 33.9029 48.487 24.2823 59.9745C17.9508 67.5352 12.7704 74.0625 12.7704 74.4796C12.7704 76.3245 21.381 82.3854 27.4696 84.8264C51.638 94.5143 78.9624 81.1875 86.1665 56.1981C88.688 47.4513 88.612 39.5512 85.9185 30.4968C84.7309 26.5051 83.6026 24.8576 82.3776 25.3279C81.652 25.607 76.928 31.0057 69.8278 39.6708L66.2786 44.002L64.8006 42.9473C63.9878 42.3674 62.8656 41.3865 62.307 40.7675C61.3105 39.6636 61.4569 39.4455 70.2669 28.903C75.2037 22.9965 79.2423 17.8998 79.2423 17.5771C79.2423 16.2433 69.8373 7.83991 65.83 5.59352C58.6416 1.56265 53.8428 0.254623 45.4478 0.0376449C40.4942 -0.0909762 37.0321 0.108108 34.5553 0.663975ZM36.5025 3.96115C28.3287 5.52809 21.3648 9.25251 15.35 15.2748C6.95664 23.6771 2.6762 34.861 3.47386 46.3049C4.05702 54.6725 3.88945 54.6619 10.5735 46.7607C23.9561 30.9408 21.948 32.7292 35.4334 24.6177C42.17 20.565 48.091 17.2309 48.5915 17.208C51.0241 17.0962 50.8057 18.4629 46.6213 29.5428C44.3596 35.5315 41.9002 41.9284 41.1561 43.7582C40.1211 46.3021 37.1231 50.2894 28.4103 60.7093L17.0174 74.3337L18.9434 75.9403C22.0418 78.5239 30.5743 82.4966 35.0106 83.421C55.6571 87.7243 75.431 76.452 82.4726 56.3653C83.8087 52.5536 83.9634 51.3133 83.9763 44.2883C83.9891 36.9463 83.1407 31.1466 82.0525 31.1466C81.8347 31.1466 79.1853 34.1032 76.1645 37.7175C73.1436 41.3317 70.2937 44.7346 69.8317 45.2804C69.1871 46.0404 69.1441 46.4257 69.648 46.9301C70.0094 47.2919 70.3049 47.8903 70.3049 48.2594C70.3049 49.4421 64.5855 55.7524 63.5141 55.7524C62.9477 55.7524 62.4846 56.0963 62.4846 56.5163C62.4846 56.9363 61.6099 59.0306 60.5402 61.1701C55.533 71.1903 43.4581 77.7695 33.0913 76.1254C30.2726 75.6786 29.7816 75.4219 29.6247 74.3152C29.4895 73.3606 30.1129 72.434 32.0221 70.7519C35.0474 68.086 36.2763 65.8318 37.5661 60.5841C39.2977 53.5384 43.0051 48.218 47.9385 45.6981C49.1797 45.064 50.1957 44.2302 50.1957 43.8454C50.1957 43.4601 51.3894 41.6936 52.849 39.9197C55.1169 37.1627 55.7313 36.7249 57.077 36.9049C58.5086 37.0967 59.3186 36.3217 65.9658 28.3992C69.9881 23.6049 73.6609 19.2352 74.1273 18.6883C74.9048 17.7767 74.7691 17.482 72.5007 15.154C67.8588 10.39 61.1083 6.54084 53.8266 4.50583C49.6975 3.3516 41.0924 3.08093 36.5025 3.96115ZM41.9471 24.9247L39.5636 26.4603L40.9768 27.7896C41.822 28.5843 42.5783 28.9081 42.8576 28.5949C43.6011 27.7611 45.2025 23.3136 44.7451 23.3533C44.5172 23.3729 43.2581 24.0803 41.9471 24.9247ZM31.6261 31.075C29.2471 32.4988 27.3138 33.7889 27.3305 33.9427C27.3685 34.3023 36.6623 41.9933 37.3449 42.2298C37.8739 42.4133 38.6246 40.8447 40.4182 35.8038L41.4477 32.9115L39.5843 31.33C35.9579 28.2521 36.3255 28.2638 31.6261 31.075ZM55.5889 42.2354C55.0806 42.798 54.6644 43.4954 54.6644 43.7856C54.6644 44.0758 56.5765 45.9106 58.9136 47.8634L63.1628 51.4134L64.5592 50.0153L65.9552 48.6173L61.6211 44.9152C59.237 42.8785 57.1127 41.2126 56.8999 41.2126C56.6876 41.2126 56.0972 41.6729 55.5889 42.2354ZM48.8479 49.3247C44.4177 52.3339 43.0352 54.5797 40.7478 62.4821C39.6077 66.419 38.528 68.9059 37.2879 70.451L35.4848 72.6974L39.2396 72.3954C48.1608 71.6785 57.101 63.7387 59.3242 54.5585C59.6359 53.2706 59.2856 52.7583 56.5497 50.5041C54.8281 49.0848 52.8546 47.9233 52.1648 47.9233C51.4749 47.9233 49.9818 48.5541 48.8479 49.3247Z" fill="#FFD166"/>
</svg>
