<svg width="160" height="159" viewBox="0 0 160 159" fill="none" xmlns="http://www.w3.org/2000/svg">
<path d="M79.723 0L85.6805 40.4197L103.288 3.55182L97.0666 43.9319L124.758 13.8916L106.912 50.644L142.228 30.1007L114.341 59.9599L154.143 50.7388L118.694 71.0517L159.446 73.9718L119.584 82.9336L157.665 97.7361L116.933 94.5507L148.958 119.92L110.976 104.87L134.1 138.551L102.241 112.974L114.41 151.976L91.5053 118.144L91.6385 159L79.723 119.92L67.8074 159L67.9406 118.144L45.0355 151.976L57.2053 112.974L25.3455 138.551L48.4706 104.87L10.4873 119.92L42.5129 94.5507L1.78085 97.7361L39.8614 82.9336L0 73.9718L40.7519 71.0517L5.30282 50.7388L45.1051 59.9599L17.2183 30.1007L52.534 50.644L34.6875 13.8916L62.3793 43.9319L56.1583 3.55182L73.7655 40.4197L79.723 0Z" fill="#FFD166"/>
</svg>
